<svg xmlns="http://www.w3.org/2000/svg" xmlns:xlink="http://www.w3.org/1999/xlink" version="1.1" width="512" height="512" x="0" y="0" viewBox="0 0 512 512" style="enable-background:new 0 0 512 512" xml:space="preserve" class="">
  <g>
    <path d="M46.545 162.909h395.636v186.182H46.545z" fill="#000000" opacity="1" data-original="#000000" class=""/>
    <path d="M488.727 209.455V162.91c0-25.706-20.839-46.545-46.545-46.545H46.545C20.839 116.364 0 137.203 0 162.909v186.182c0 25.706 20.839 46.545 46.545 46.545h395.636c25.706 0 46.545-20.839 46.545-46.545v-46.545c12.853 0 23.273-10.42 23.273-23.273v-46.545c.001-12.854-10.419-23.273-23.272-23.273zm-23.272 139.636c0 12.853-10.42 23.273-23.273 23.273H46.545c-12.853 0-23.273-10.42-23.273-23.273V162.909c0-12.853 10.42-23.273 23.273-23.273h395.636c12.853 0 23.273 10.42 23.273 23.273v186.182z" fill="#000000" opacity="1" data-original="#000000" class=""/>
  </g>
</svg>
